<svg id="レイヤー_1" data-name="レイヤー 1" xmlns="http://www.w3.org/2000/svg" width="1200" height="350" viewBox="0 0 1200 350"><defs><style>.cls-1{fill:#1a0b08;}.cls-2{fill:#e95513;}.cls-3{fill:#fff;}.cls-4{fill:#d21b1a;}</style></defs><path class="cls-1" d="M117.5,73.5h38v48h34v-48h39v129h-39v-54h-33v54h-39Z"/><path class="cls-1" d="M264.5,73.5h39v129h-39Z"/><path class="cls-1" d="M459.5,73.5h38v48h34v-48h39v129h-39v-54h-34v54h-38Z"/><path class="cls-1" d="M637.87,73.5h40.5l40.27,129h-37l-7.25-28H639.06l-7.48,28H596Zm30.17,77-11.3-43.43L645.2,150.5Z"/><path class="cls-1" d="M743.5,73.5h39v129h-39Z"/><path class="cls-1" d="M817.5,73.5h31l43,70v-70h36v129h-31l-43-67.5v67.5h-36Z"/><polygon class="cls-1" points="429.5 100.5 429.5 73.5 335.5 73.5 335.5 202.5 429.5 202.5 429.5 174.5 374.5 174.5 374.5 100.5 429.5 100.5"/><rect class="cls-2" x="702.5" y="217.5" width="265" height="65"/><path class="cls-3" d="M828.5,259.5v-34h-41v50h16v-16Zm-25-24h10v14h-10Z"/><polygon class="cls-3" points="894.5 225.5 894.5 255.5 919.5 255.5 919.5 265.5 894.5 265.5 894.5 275.5 934.5 275.5 934.5 245.5 910.5 245.5 910.5 235.5 934.5 235.5 934.5 225.5 894.5 225.5"/><path class="cls-3" d="M882.5,259.5v-34h-41v50h16v-16Zm-26-24h10v14h-10Z"/><path class="cls-3" d="M775.5,225.5h-41v50h16v-16h10v16h15m-25-40h10v14h-10Z"/><rect class="cls-1" x="956.5" y="162.5" width="65" height="40" transform="translate(1978 365) rotate(180)"/><rect class="cls-1" x="1052.5" y="202.5" width="65" height="40" transform="translate(2170 445) rotate(180)"/><rect class="cls-4" x="1025" y="135" width="65" height="40" transform="translate(902.5 1212.5) rotate(-90)"/><rect class="cls-4" x="984" y="230" width="65" height="40" transform="translate(766.5 1266.5) rotate(-90)"/></svg>