<svg xmlns="http://www.w3.org/2000/svg" xmlns:xlink="http://www.w3.org/1999/xlink" width="35mm" height="35mm" viewBox="0 0 99.21 99.21"><defs><style>.cls-1{fill:none;}.cls-2{fill:#fff;}.cls-3{clip-path:url(#clip-path);}.cls-4{fill:#1a0b08;}</style><clipPath id="clip-path"><rect class="cls-1" width="99.21" height="99.21"/></clipPath></defs><g id="Background"><rect class="cls-2" width="99.21" height="99.21"/></g><g id="Signs"><g class="cls-3"><polygon class="cls-4" points="96.38 96.38 96.38 88.36 60.46 52.44 52.44 52.44 52.44 60.46 88.36 96.38 96.38 96.38"/><polygon class="cls-4" points="46.77 10.85 46.77 2.83 38.75 2.83 2.83 38.75 2.83 46.77 10.85 46.77 46.77 10.85"/><polygon class="cls-4" points="88.36 46.77 96.38 46.77 96.38 38.75 60.46 2.83 52.44 2.83 52.44 10.85 88.36 46.77"/><polygon class="cls-4" points="2.83 88.36 2.83 96.38 10.85 96.38 46.77 60.46 46.77 52.44 38.75 52.44 2.83 88.36"/></g></g></svg>