<svg xmlns="http://www.w3.org/2000/svg" xmlns:xlink="http://www.w3.org/1999/xlink" width="35mm" height="35mm" viewBox="0 0 99.21 99.21"><defs><style>.cls-1{fill:none;}.cls-2{fill:#fff;}.cls-3{clip-path:url(#clip-path);}.cls-4{fill:#1a0b08;}</style><clipPath id="clip-path"><rect class="cls-1" width="99.21" height="99.21"/></clipPath></defs><g id="Background"><rect class="cls-2" width="99.21" height="99.21"/></g><g id="Signs"><g class="cls-3"><polygon class="cls-4" points="85.04 76.53 85.04 68.52 22.19 5.67 14.17 5.67 14.17 13.69 77.02 76.53 85.04 76.53"/><path class="cls-4" d="M12.85,84.91a4,4,0,0,1,2.22-.69,3.57,3.57,0,0,1,3.52,3.84A5.65,5.65,0,0,1,17,92a5.92,5.92,0,0,1-4.34,1.54,13.63,13.63,0,0,1-3.46-.49l2.39-13.57h2.2l-1,5.41Zm-1.21,6.64a5.08,5.08,0,0,0,1.32.16,3.26,3.26,0,0,0,2.54-1,3.84,3.84,0,0,0,.87-2.4,2,2,0,0,0-2-2.23,3.33,3.33,0,0,0-1.87.65Z"/><path class="cls-4" d="M27.58,93.34H25.41l.12-.7,0,0a3.61,3.61,0,0,1-2.4.92,3.52,3.52,0,0,1-3.45-3.84,5.71,5.71,0,0,1,1.62-4,5.25,5.25,0,0,1,3.79-1.5,9.15,9.15,0,0,1,3.94,1Zm-1-6.87a4,4,0,0,0-1.72-.4,2.71,2.71,0,0,0-2.16,1,3.85,3.85,0,0,0-.85,2.43c0,1.41.81,2.21,1.9,2.21a3,3,0,0,0,2.07-1Z"/><path class="cls-4" d="M36.87,93.14a7.75,7.75,0,0,1-2.41.4c-2.29,0-4.47-1.28-4.47-4a5.45,5.45,0,0,1,1.82-4.06,5.64,5.64,0,0,1,3.63-1.27,7.63,7.63,0,0,1,2.7.52l-.36,2.09a4.92,4.92,0,0,0-2.43-.71,2.87,2.87,0,0,0-2.07.77,3.35,3.35,0,0,0-1.07,2.44,2.21,2.21,0,0,0,2.52,2.29,6.48,6.48,0,0,0,2.5-.56Z"/><path class="cls-4" d="M41.08,79.48h2.2L41.77,88h0l4.3-3.61h2.7l-4.77,4,3.08,4.93h-2.5L41.7,88.61h0l-.83,4.73h-2.2Z"/><path class="cls-4" d="M48.66,90.4a6,6,0,0,0,3.58,1.29,1.68,1.68,0,0,0,1.12-.3.89.89,0,0,0,.29-.66c0-.78-1-.78-2.21-1.11-1.53-.41-2.4-1.08-2.4-2.34a2.9,2.9,0,0,1,1-2.15,4.07,4.07,0,0,1,2.76-.91,8.25,8.25,0,0,1,3.45.81l-.37,2.06a6.38,6.38,0,0,0-3.23-1,1.73,1.73,0,0,0-1,.23.85.85,0,0,0-.38.69c0,.76,1.07.76,2.17,1,1.56.4,2.42,1.11,2.42,2.42A2.92,2.92,0,0,1,55,92.55a4.07,4.07,0,0,1-3,1,7.71,7.71,0,0,1-3.76-1Z"/><path class="cls-4" d="M59.58,79.48h2.2L59.33,93.34h-2.2Z"/><path class="cls-4" d="M69.69,93.34H67.51l.13-.7,0,0a3.58,3.58,0,0,1-2.39.92,3.52,3.52,0,0,1-3.45-3.84,5.71,5.71,0,0,1,1.62-4,5.25,5.25,0,0,1,3.79-1.5,9.14,9.14,0,0,1,3.93,1Zm-1-6.87a4.07,4.07,0,0,0-1.72-.4,2.71,2.71,0,0,0-2.16,1A3.86,3.86,0,0,0,64,89.5a2,2,0,0,0,1.91,2.21,3.06,3.06,0,0,0,2.07-1Z"/><path class="cls-4" d="M72.23,90.4a6,6,0,0,0,3.57,1.29,1.7,1.7,0,0,0,1.13-.3.92.92,0,0,0,.29-.66c0-.78-1-.78-2.22-1.11-1.52-.41-2.39-1.08-2.39-2.34a2.86,2.86,0,0,1,1-2.15,4.06,4.06,0,0,1,2.75-.91,8.22,8.22,0,0,1,3.45.81l-.36,2.06a6.41,6.41,0,0,0-3.23-1,1.76,1.76,0,0,0-1,.23.87.87,0,0,0-.38.69c0,.76,1.07.76,2.18,1,1.56.4,2.41,1.11,2.41,2.42a2.91,2.91,0,0,1-.87,2.07,4.11,4.11,0,0,1-3,1,7.67,7.67,0,0,1-3.75-1Z"/><path class="cls-4" d="M83.15,79.48h2.19l-1,5.88,0,0a4.91,4.91,0,0,1,3-1.16A2.57,2.57,0,0,1,90,87a6.56,6.56,0,0,1-.13,1.16L89,93.34H86.78l.89-5a4.86,4.86,0,0,0,.09-.85,1.16,1.16,0,0,0-1.29-1.31A4.1,4.1,0,0,0,84,87.28L82.9,93.34H80.7Z"/></g></g></svg>