<svg id="Signs" xmlns="http://www.w3.org/2000/svg" xmlns:xlink="http://www.w3.org/1999/xlink" viewBox="0 0 99.21 99.21"><defs><style>.cls-1{fill:none;}.cls-2{clip-path:url(#clip-path);}.cls-3{fill:#1a0b08;}</style><clipPath id="clip-path"><rect class="cls-1" width="99.21" height="99.21" transform="translate(99.21 0) rotate(90)"/></clipPath></defs><g class="cls-2"><polygon class="cls-3" points="46.77 96.38 46.77 88.36 10.85 52.44 2.83 52.44 2.83 60.46 38.75 96.38 46.77 96.38"/><polygon class="cls-3" points="88.36 46.77 96.38 46.77 96.38 38.75 60.46 2.83 52.44 2.83 52.44 10.85 88.36 46.77"/><polygon class="cls-3" points="60.46 52.44 52.44 52.44 52.44 60.46 88.36 96.38 96.38 96.38 96.38 88.36 60.46 52.44"/><polygon class="cls-3" points="38.75 46.77 46.77 46.77 46.77 38.75 10.85 2.83 2.83 2.83 2.83 10.85 38.75 46.77"/></g></svg>